<svg width="55" height="38" viewBox="0 0 55 38" fill="none" xmlns="http://www.w3.org/2000/svg">
<path d="M10.6908 22.0173C9.89334 25.8389 9.03515 29.7984 6.93591 33.3187C6.55938 33.9501 6.09225 34.6477 6.27782 33.5953C6.44707 32.6354 6.76068 31.8883 7.69645 31.1536C12.4036 27.4578 17.8173 24.0816 21.4274 19.8728C21.772 19.4711 24.6616 16.0722 21.3895 16.8192C17.2299 17.7688 13.9756 20.3119 11.344 22.2353C7.61774 24.9589 4.01328 27.8671 1.78678 31.2332C1.32234 31.9353 2.17785 32.1987 3.42218 32.3253C5.64692 32.5518 7.44754 31.7848 9.32556 31.4409C10.0526 31.3077 10.5071 31.2919 10.795 31.7C11.1957 32.2682 13.9105 31.6601 14.3472 31.5412C15.3074 31.2798 15.9875 30.8584 17.2286 31.0772C18.7018 31.337 19.9143 30.9551 21.1514 30.6848C23.651 30.1385 25.9153 29.3737 28.5355 28.9679C29.2149 28.8626 28.8599 29.2676 29.2973 29.5041" stroke="#414047" stroke-width="3" stroke-linecap="round"/>
<path d="M30.8281 25.956L32.4982 30.5443L37.0865 28.8743L45.6936 10.4163L39.4353 7.49797L30.8281 25.956ZM47.9505 5.5765C48.254 4.92563 47.9734 4.15479 47.3225 3.85128L43.4173 2.03025C42.7664 1.72674 41.9956 2.0073 41.6921 2.65817L40.2679 5.71226L46.5263 8.63058L47.9505 5.5765Z" fill="#414047"/>
</svg>
