<svg width="26" height="26" viewBox="0 0 26 26" fill="none" xmlns="http://www.w3.org/2000/svg">
<path d="M13.7811 5.41993L12.1929 5.41668C8.57025 5.40801 5.42533 8.35143 5.40041 11.9167V16.0225C5.40041 16.8783 5.29208 17.7136 4.82516 18.4253L4.51425 18.8998C4.04083 19.6192 4.55 20.5833 5.40041 20.5833H20.5996C21.45 20.5833 21.9581 19.6192 21.4857 18.8998L21.1748 18.4253C20.709 17.7136 20.5996 16.8773 20.5996 16.0214V11.9178C20.5562 8.35143 17.4037 5.42859 13.7811 5.41993Z" fill="#BEBEC2"/>
<path d="M16.25 20.5833C16.25 21.4453 15.9076 22.2719 15.2981 22.8814C14.6886 23.4909 13.862 23.8333 13 23.8333C12.138 23.8333 11.3114 23.4909 10.7019 22.8814C10.0924 22.2719 9.75 21.4453 9.75 20.5833" fill="#6F6E73"/>
<path d="M13 2.16666C13.5746 2.16666 14.1257 2.39493 14.532 2.80126C14.9384 3.20759 15.1666 3.75869 15.1666 4.33332V5.41666H10.8333V4.33332C10.8333 3.75869 11.0616 3.20759 11.4679 2.80126C11.8742 2.39493 12.4253 2.16666 13 2.16666Z" fill="#6F6E73"/>
<circle cx="19.5" cy="9.75" r="3.75" fill="#DD736D" stroke="#F5F5F5"/>
</svg>
