<svg width="26" height="26" viewBox="0 0 26 26" fill="none" xmlns="http://www.w3.org/2000/svg">
<path d="M15.1667 3.54141C15.1667 2.78199 14.5514 2.16666 13.7919 2.16666H12.2092C11.4487 2.16666 10.8334 2.78199 10.8334 3.54141C10.8334 4.16757 10.4044 4.70491 9.82044 4.93457C9.72835 4.97141 9.63627 5.01041 9.54635 5.04941C8.9711 5.29857 8.28752 5.22274 7.84335 4.77966C7.58557 4.52205 7.23604 4.37735 6.8716 4.37735C6.50717 4.37735 6.15764 4.52205 5.89985 4.77966L4.77969 5.89982C4.52208 6.15761 4.37738 6.50714 4.37738 6.87157C4.37738 7.23601 4.52208 7.58554 4.77969 7.84332C5.22385 8.28749 5.29969 8.96999 5.04835 9.54632C5.00886 9.63702 4.97094 9.7284 4.9346 9.82041C4.70494 10.4043 4.1676 10.8333 3.54144 10.8333C2.78202 10.8333 2.16669 11.4487 2.16669 12.2081V13.7919C2.16669 14.5513 2.78202 15.1667 3.54144 15.1667C4.1676 15.1667 4.70494 15.5957 4.9346 16.1796C4.97144 16.2717 5.01044 16.3637 5.04835 16.4537C5.2986 17.0289 5.22277 17.7125 4.77969 18.1567C4.52208 18.4144 4.37738 18.764 4.37738 19.1284C4.37738 19.4928 4.52208 19.8424 4.77969 20.1002L5.89985 21.2203C6.15764 21.4779 6.50717 21.6226 6.8716 21.6226C7.23604 21.6226 7.58557 21.4779 7.84335 21.2203C8.28752 20.7762 8.97002 20.7003 9.54635 20.9506C9.63627 20.9907 9.72835 21.0286 9.82044 21.0654C10.4044 21.2951 10.8334 21.8324 10.8334 22.4586C10.8334 23.218 11.4487 23.8333 12.2081 23.8333H13.7919C14.5514 23.8333 15.1667 23.218 15.1667 22.4586C15.1667 21.8324 15.5957 21.2951 16.1796 21.0643C16.2717 21.0286 16.3638 20.9907 16.4537 20.9517C17.0289 20.7003 17.7125 20.7772 18.1556 21.2203C18.2833 21.348 18.4348 21.4494 18.6017 21.5185C18.7685 21.5876 18.9473 21.6232 19.1279 21.6232C19.3085 21.6232 19.4873 21.5876 19.6541 21.5185C19.8209 21.4494 19.9725 21.348 20.1002 21.2203L21.2204 20.1002C21.478 19.8424 21.6227 19.4928 21.6227 19.1284C21.6227 18.764 21.478 18.4144 21.2204 18.1567C20.7762 17.7125 20.7004 17.03 20.9506 16.4537C20.9907 16.3637 21.0286 16.2717 21.0654 16.1796C21.2951 15.5957 21.8324 15.1667 22.4586 15.1667C23.218 15.1667 23.8334 14.5513 23.8334 13.7919V12.2092C23.8334 11.4497 23.218 10.8344 22.4586 10.8344C21.8324 10.8344 21.2951 10.4054 21.0644 9.82149C21.0281 9.72947 20.9901 9.63809 20.9506 9.54741C20.7014 8.97216 20.7773 8.28857 21.2204 7.84441C21.478 7.58662 21.6227 7.23709 21.6227 6.87266C21.6227 6.50822 21.478 6.15869 21.2204 5.90091L20.1002 4.78074C19.8424 4.52314 19.4929 4.37843 19.1284 4.37843C18.764 4.37843 18.4145 4.52314 18.1567 4.78074C17.7125 5.22491 17.03 5.30074 16.4537 5.05049C16.363 5.01063 16.2716 4.97235 16.1796 4.93566C15.5957 4.70491 15.1667 4.16757 15.1667 3.54249V3.54141Z" fill="#BEBEC2"/>
<path d="M17.3334 13C17.3334 14.1493 16.8768 15.2515 16.0642 16.0641C15.2515 16.8768 14.1493 17.3333 13 17.3333C11.8507 17.3333 10.7485 16.8768 9.93589 16.0641C9.12323 15.2515 8.66669 14.1493 8.66669 13C8.66669 11.8507 9.12323 10.7485 9.93589 9.93586C10.7485 9.1232 11.8507 8.66666 13 8.66666C14.1493 8.66666 15.2515 9.1232 16.0642 9.93586C16.8768 10.7485 17.3334 11.8507 17.3334 13Z" fill="#6F6E73"/>
</svg>
